<svg width="133" height="133" viewBox="0 0 133 133" fill="none" xmlns="http://www.w3.org/2000/svg">
<path d="M105 82.9996C106.1 81.8996 107.407 81.3496 108.921 81.3496C110.436 81.3496 111.741 81.8996 112.837 82.9996L121.5 91.7996C122.6 92.8996 123.15 94.1829 123.15 95.6496C123.15 97.1163 122.6 98.3996 121.5 99.4996C120.4 100.6 119.117 101.15 117.65 101.15C116.183 101.15 114.9 100.6 113.8 99.4996L105 90.8371C103.9 89.7371 103.35 88.4318 103.35 86.9211C103.35 85.4104 103.9 84.1033 105 82.9996ZM110.5 16.9996C111.6 18.0996 112.15 19.4068 112.15 20.9211C112.15 22.4354 111.6 23.7408 110.5 24.8371L101.837 33.4996C100.737 34.5996 99.4322 35.1496 97.9215 35.1496C96.4108 35.1496 95.1037 34.5996 94 33.4996C92.8963 32.3996 92.3463 31.0943 92.35 29.5836C92.3537 28.0729 92.9037 26.7658 94 25.6621L102.8 16.9996C103.9 15.8996 105.183 15.3496 106.65 15.3496C108.117 15.3496 109.4 15.8996 110.5 16.9996ZM22.5 16.9996C23.6 15.8996 24.9072 15.3496 26.4215 15.3496C27.9358 15.3496 29.2412 15.8996 30.3375 16.9996L39 25.7996C40.1 26.8996 40.65 28.1829 40.65 29.6496C40.65 31.1163 40.1 32.3996 39 33.4996C37.9 34.5996 36.5947 35.1496 35.084 35.1496C33.5733 35.1496 32.2662 34.5996 31.1625 33.4996L22.5 24.8371C21.4 23.7371 20.85 22.4318 20.85 20.9211C20.85 19.4104 21.4 18.1033 22.5 16.9996ZM28 82.9996C29.1 84.0996 29.65 85.4068 29.65 86.9211C29.65 88.4354 29.1 89.7408 28 90.8371L19.3375 99.4996C18.2375 100.6 16.9322 101.15 15.4215 101.15C13.9108 101.15 12.6037 100.6 11.5 99.4996C10.3963 98.3996 9.84633 97.0943 9.84999 95.5836C9.85366 94.0729 10.4037 92.7658 11.5 91.6621L20.3 82.9996C21.4 81.8996 22.6833 81.3496 24.15 81.3496C25.6167 81.3496 26.9 81.8996 28 82.9996ZM66.5 95.5121L43.675 109.262C42.6667 109.904 41.6125 110.179 40.5125 110.087C39.4125 109.995 38.45 109.629 37.625 108.987C36.8 108.345 36.1583 107.544 35.7 106.584C35.2417 105.623 35.15 104.545 35.425 103.35L41.475 77.3621L21.2625 59.8996C20.3458 59.0746 19.7738 58.1341 19.5465 57.0781C19.3192 56.0221 19.387 54.9918 19.75 53.9871C20.113 52.9824 20.663 52.1574 21.4 51.5121C22.137 50.8668 23.1453 50.4543 24.425 50.2746L51.1 47.9371L61.4125 23.4621C61.8708 22.3621 62.5822 21.5371 63.5465 20.9871C64.5108 20.4371 65.4953 20.1621 66.5 20.1621C67.5047 20.1621 68.4892 20.4371 69.4535 20.9871C70.4178 21.5371 71.1292 22.3621 71.5875 23.4621L81.9 47.9371L108.575 50.2746C109.858 50.4579 110.867 50.8704 111.6 51.5121C112.333 52.1538 112.883 52.9788 113.25 53.9871C113.617 54.9954 113.686 56.0276 113.459 57.0836C113.232 58.1396 112.658 59.0783 111.737 59.8996L91.525 77.3621L97.575 103.35C97.85 104.541 97.7583 105.619 97.3 106.584C96.8417 107.548 96.2 108.349 95.375 108.987C94.55 109.625 93.5875 109.992 92.4875 110.087C91.3875 110.182 90.3333 109.907 89.325 109.262L66.5 95.5121Z" fill="#4BB8FF"/>
</svg>
