<svg version="1.2" xmlns="http://www.w3.org/2000/svg" viewBox="0 0 115 115" width="115" height="115">
	<title>download-icon</title>
	<style>
		.s0 { fill: #4bb8ff } 
	</style>
	<path class="s0" d="m30.6 29.6c0 7.2 2.9 14.2 8 19.4 5.1 5.1 12.1 8 19.4 8 7.3 0 14.3-2.9 19.4-8 5.1-5.2 8-12.2 8-19.4 0-7.3-2.9-14.3-8-19.4-5.1-5.2-12.1-8.1-19.4-8.1-7.3 0-14.3 2.9-19.4 8.1-5.1 5.1-8 12.1-8 19.4zm20.2 42.9l4 6.6-7.1 26.6-7.7-31.5c-0.5-1.7-2.1-2.9-3.9-2.4-15 3.7-26.1 17.3-26.1 33.5 0 3.6 3 6.6 6.6 6.6h28.2q0 0 0 0h1.2 24 1.2q0 0 0 0h28.2c3.7 0 6.6-3 6.6-6.6 0-16.2-11.1-29.8-26.1-33.5-1.8-0.5-3.4 0.7-3.9 2.4l-7.7 31.5-7.1-26.6 4-6.6c1.4-2.3-0.3-5.2-3-5.2h-4.2-4.2c-2.7 0-4.3 2.9-3 5.2z"/>
</svg>