<svg version="1.2" xmlns="http://www.w3.org/2000/svg" viewBox="0 0 115 115" width="115" height="115">
	<title>New Project</title>
	<style>
		.s0 { fill: #4bb8ff } 
	</style>
	<path class="s0" d="m83.9 32.2c-1.1-1-2.5-1.5-3.9-1.5-1.4 0-2.8 0.5-3.9 1.5l-12.6 12.6v-36.8c0-1.5-0.6-2.9-1.6-3.9-1-1-2.4-1.6-3.9-1.6-1.5 0-2.9 0.6-3.9 1.6-1 1-1.6 2.4-1.6 3.9v36.8l-12.6-12.6q-0.8-0.8-1.8-1.2-1-0.4-2.1-0.4-1.1 0-2.1 0.4-1 0.4-1.8 1.2c-1 1.1-1.6 2.5-1.6 3.9 0 1.5 0.6 2.9 1.6 3.9l25.9 25.7 25.9-25.7c1-1 1.6-2.4 1.6-3.9 0-1.5-0.6-2.8-1.6-3.9zm23.5 47.3q0.1-0.9-0.2-1.7l-11-33c-0.4-1.1-1.1-2.1-2-2.8-0.9-0.6-2-1-3.2-1h-1.2c-0.5 1-1.2 2-2 2.9l-8.2 8.1h7.4l9.2 27.5h-76.4l9.2-27.5h7.4l-8.2-8.1q-1.2-1.3-2-2.9h-1.2c-1.2 0-2.3 0.4-3.2 1-0.9 0.7-1.6 1.7-2 2.8l-11 33q-0.3 0.8-0.2 1.7c-0.1 0-0.1 27.5-0.1 27.5 0 1.5 0.6 2.9 1.6 3.9 1 1 2.4 1.6 3.9 1.6h88c1.5 0 2.9-0.6 3.9-1.6 1-1 1.6-2.4 1.6-3.9 0 0 0-27.5-0.1-27.5z"/>
</svg>