<svg version="1.2" xmlns="http://www.w3.org/2000/svg" viewBox="0 0 115 115" width="115" height="115">
	<title>New Project</title>
	<style>
		.s0 { fill: #4bb8ff } 
	</style>
	<path fill-rule="evenodd" class="s0" d="m36.8 48.4v5c0 1.6-0.7 3.2-1.9 4.3-1.1 1.2-2.7 1.9-4.3 1.9-1.7 0-3.3-0.7-4.4-1.9-1.2-1.1-1.8-2.7-1.8-4.3v-5c-5.3-1.5-9.9-4.9-12.9-9.4-3-4.6-4.2-10.1-3.4-15.6 0.7-5.4 3.4-10.4 7.5-14 4.2-3.6 9.5-5.5 15-5.5 4.7 0 9.3 1.4 13.1 4.2 3.8 2.7 6.7 6.5 8.3 11l11.3-11.3c1.2-1.1 2.7-1.7 4.3-1.7 1.6 0 3.2 0.7 4.3 1.8 1.1 1.1 1.8 2.7 1.8 4.3 0 1.6-0.5 3.1-1.6 4.3l-3.9 3.9h5.7c6.5 0 12.8 2.6 17.5 7.2 4.6 4.7 7.2 11 7.2 17.5v22.7c0 1.7-0.6 3.2-1.8 4.4-1.1 1.1-2.7 1.8-4.4 1.8q-1.2 0-2.3-0.5-1.2-0.4-2-1.3-0.9-0.9-1.4-2-0.5-1.2-0.4-2.4v-22.7c0-2.9-1.1-5.8-3-8-1.9-2.3-4.6-3.7-7.5-4.2q-1-0.2-1.9-0.2h-5.7l3.9 3.9q0.9 0.9 1.4 2 0.5 1.2 0.5 2.4 0 1.3-0.4 2.5-0.5 1.1-1.4 2-0.9 0.9-2 1.4-1.2 0.5-2.5 0.4-1.2 0-2.4-0.5-1.1-0.5-2-1.4l-11.3-11.4c-1.4 4.1-3.9 7.6-7.3 10.3-2.3 1.8-5 3.3-7.9 4.1zm4.4 23.4c0.8 0.8 1.3 1.7 1.6 2.8 0.2 1 0.2 2.1-0.1 3.1-0.3 1-0.8 2-1.6 2.7l-3.9 3.9h63.5c1.6 0 3.2 0.7 4.4 1.8 1.1 1.2 1.8 2.8 1.8 4.4 0 1.6-0.7 3.2-1.8 4.4-1.2 1.1-2.8 1.8-4.4 1.8h-63.5l3.9 3.9c1.1 1.1 1.8 2.7 1.8 4.3-0.1 1.6-0.7 3.2-1.9 4.3-1.1 1.2-2.7 1.8-4.3 1.8-1.6 0.1-3.2-0.6-4.3-1.7l-14.5-14.4c-1.1-1.2-1.8-2.8-1.8-4.4 0-1.6 0.7-3.2 1.8-4.4l14.5-14.4c0.8-0.8 1.8-1.4 2.8-1.6 1.1-0.3 2.3-0.3 3.3 0 1.1 0.3 2 0.9 2.7 1.7zm-6.2-54.6c-2.5-1.1-5.3-1.3-7.9-0.4-2.6 0.9-4.7 2.9-5.8 5.3-1.2 2.5-1.4 5.3-0.5 7.9 1 2.6 2.9 4.7 5.3 5.9 1.3 0.6 2.6 1 4 1.1 1.3 0.1 2.7-0.1 4-0.5 1.3-0.5 2.5-1.2 3.6-2.1 1-0.9 1.8-2 2.4-3.3 0.6-1.2 1-2.6 1-4 0.1-1.3-0.1-2.7-0.6-4-0.5-1.3-1.2-2.5-2.2-3.5-0.9-1-2-1.8-3.3-2.3z"/>
</svg>